<mxfile host="Electron" modified="2024-05-01T14:03:31.456Z" agent="Mozilla/5.0 (X11; Linux x86_64) AppleWebKit/537.36 (KHTML, like Gecko) draw.io/24.2.5 Chrome/120.0.6099.109 Electron/28.1.0 Safari/537.36" etag="uUltUsl8EqiLDmzbMBbF" version="24.2.5" type="device">
  <diagram name="第 1 页" id="EtefVId33jxcPVyFyQEL">
    <mxGraphModel dx="1114" dy="666" grid="1" gridSize="10" guides="1" tooltips="1" connect="1" arrows="1" fold="1" page="1" pageScale="1" pageWidth="1169" pageHeight="827" math="0" shadow="0">
      <root>
        <mxCell id="0" />
        <mxCell id="1" parent="0" />
        <mxCell id="lyxomZVtgoWkGLg-RvYs-1" value="" style="rounded=0;whiteSpace=wrap;html=1;" vertex="1" parent="1">
          <mxGeometry x="200" y="80" width="760" height="170" as="geometry" />
        </mxCell>
        <mxCell id="lyxomZVtgoWkGLg-RvYs-3" value="&lt;font style=&quot;font-size: 30px;&quot;&gt;Service&lt;/font&gt;" style="text;html=1;align=center;verticalAlign=middle;whiteSpace=wrap;rounded=0;" vertex="1" parent="1">
          <mxGeometry x="460" y="80" width="200" height="90" as="geometry" />
        </mxCell>
        <mxCell id="lyxomZVtgoWkGLg-RvYs-4" value="" style="rounded=1;whiteSpace=wrap;html=1;" vertex="1" parent="1">
          <mxGeometry x="220" y="150" width="170" height="80" as="geometry" />
        </mxCell>
        <mxCell id="lyxomZVtgoWkGLg-RvYs-5" value="&lt;font style=&quot;font-size: 20px;&quot;&gt;验证服务&lt;/font&gt;" style="text;html=1;align=center;verticalAlign=middle;whiteSpace=wrap;rounded=0;" vertex="1" parent="1">
          <mxGeometry x="252.5" y="150" width="105" height="30" as="geometry" />
        </mxCell>
        <mxCell id="lyxomZVtgoWkGLg-RvYs-6" value="&lt;font style=&quot;font-size: 17px;&quot;&gt;post_authenticator&lt;/font&gt;" style="text;html=1;align=center;verticalAlign=middle;whiteSpace=wrap;rounded=0;" vertex="1" parent="1">
          <mxGeometry x="225" y="190" width="160" height="30" as="geometry" />
        </mxCell>
      </root>
    </mxGraphModel>
  </diagram>
</mxfile>
